<svg width="32" height="32" viewBox="0 0 32 32" xmlns="http://www.w3.org/2000/svg">
  <!-- Background circle -->
  <circle cx="16" cy="16" r="15" fill="#007AFF" opacity="0.1"/>
  
  <!-- Printer body -->
  <rect x="6" y="12" width="20" height="12" rx="2" fill="#007AFF" stroke="#007AFF" stroke-width="1"/>
  
  <!-- Printer top -->
  <rect x="5" y="10" width="22" height="4" rx="2" fill="#007AFF" stroke="#007AFF" stroke-width="1"/>
  
  <!-- Paper output -->
  <rect x="11" y="24" width="10" height="2" rx="1" fill="#007AFF"/>
  
  <!-- Wireless signal waves -->
  <g transform="translate(24, 8)">
    <path d="M0,4 Q1,3 2,4 Q3,5 4,4" stroke="#007AFF" stroke-width="1" fill="none"/>
    <path d="M0,5 Q1.5,4 3,5 Q4.5,6 6,5" stroke="#007AFF" stroke-width="1" fill="none"/>
  </g>
  
  <!-- Bridge icon -->
  <g transform="translate(8, 8)">
    <path d="M0,4 L2,2 L4,4 L6,2 L8,4" stroke="#FF6B35" stroke-width="1.5" fill="none"/>
    <circle cx="2" cy="2" r="0.5" fill="#FF6B35"/>
    <circle cx="6" cy="2" r="0.5" fill="#FF6B35"/>
  </g>
</svg> 